<?xml version="1.0" encoding="utf-8"?>
<!-- Generator: Adobe Illustrator 18.1.1, SVG Export Plug-In . SVG Version: 6.00 Build 0)  -->
<svg version="1.1" id="Layer_1" xmlns="http://www.w3.org/2000/svg" xmlns:xlink="http://www.w3.org/1999/xlink" x="0px" y="0px"
	 viewBox="0 0 15.9 14.1" enable-background="new 0 0 15.9 14.1" xml:space="preserve">
<g>
	<path fill="#FFFFFF" d="M14.4,14.1c0.8,0,1.5-0.7,1.5-1.5V3.9c0-0.8-0.7-1.5-1.5-1.5h-2.8V1.3C11.6,0.6,11,0,10.3,0H5.6
		C4.9,0,4.3,0.6,4.3,1.3v1.1H1.5C0.7,2.3,0,3,0,3.9v8.7c0,0.8,0.7,1.5,1.5,1.5L14.4,14.1L14.4,14.1z M5.6,1.4h4.7v0.9H5.6V1.4z
		 M1.3,3.7h13.2v9H1.3V3.7z"/>
</g>
</svg>
